<svg width="800" height="450" viewBox="0 0 800 450" fill="none" xmlns="http://www.w3.org/2000/svg">
  <rect width="800" height="450" fill="#0D1117"/>
  <g opacity="0.18" stroke="#334155" stroke-width="1">
    <path d="M40 70H760"/>
    <path d="M40 130H760"/>
    <path d="M40 190H760"/>
    <path d="M40 250H760"/>
    <path d="M40 310H760"/>
    <path d="M40 370H760"/>
  </g>
  <rect x="52" y="54" width="244" height="318" rx="18" fill="#111827" stroke="#374151"/>
  <text x="78" y="95" fill="#F8FAFC" font-size="20" font-family="Segoe UI, Arial, sans-serif" font-weight="700">Database Schema</text>
  <rect x="78" y="120" width="86" height="56" rx="10" fill="#1E3A8A"/>
  <text x="94" y="144" fill="#DBEAFE" font-size="13" font-family="Segoe UI, Arial, sans-serif" font-weight="700">Users</text>
  <text x="92" y="162" fill="#BFDBFE" font-size="10" font-family="Consolas, monospace">user_id PK</text>
  <rect x="186" y="120" width="86" height="56" rx="10" fill="#0F766E"/>
  <text x="198" y="144" fill="#CCFBF1" font-size="13" font-family="Segoe UI, Arial, sans-serif" font-weight="700">Cases</text>
  <text x="197" y="162" fill="#99F6E4" font-size="10" font-family="Consolas, monospace">case_id PK</text>
  <rect x="130" y="214" width="92" height="58" rx="10" fill="#7C3AED"/>
  <text x="145" y="239" fill="#F3E8FF" font-size="13" font-family="Segoe UI, Arial, sans-serif" font-weight="700">Verdicts</text>
  <text x="141" y="257" fill="#DDD6FE" font-size="10" font-family="Consolas, monospace">judge_id FK</text>
  <path d="M164 176V199H176" stroke="#60A5FA" stroke-width="3" stroke-linecap="round"/>
  <path d="M229 176V202H176" stroke="#2DD4BF" stroke-width="3" stroke-linecap="round"/>
  <path d="M176 202V214" stroke="#A78BFA" stroke-width="3" stroke-linecap="round"/>
  <circle cx="176" cy="202" r="5" fill="#E2E8F0"/>
  <rect x="328" y="54" width="420" height="178" rx="18" fill="#111827" stroke="#374151"/>
  <text x="356" y="93" fill="#F8FAFC" font-size="20" font-family="Segoe UI, Arial, sans-serif" font-weight="700">Web Dashboard</text>
  <rect x="356" y="112" width="108" height="34" rx="9" fill="#1F2937"/>
  <text x="381" y="134" fill="#E5E7EB" font-size="12" font-family="Segoe UI, Arial, sans-serif">NS_Login.ejs</text>
  <rect x="478" y="112" width="132" height="34" rx="9" fill="#1F2937"/>
  <text x="501" y="134" fill="#E5E7EB" font-size="12" font-family="Segoe UI, Arial, sans-serif">NS_DASHBOARD.ejs</text>
  <rect x="624" y="112" width="96" height="34" rx="9" fill="#1F2937"/>
  <text x="649" y="134" fill="#E5E7EB" font-size="12" font-family="Segoe UI, Arial, sans-serif">NS_ACC.ejs</text>
  <rect x="356" y="166" width="162" height="34" rx="9" fill="#1F2937"/>
  <text x="381" y="188" fill="#E5E7EB" font-size="12" font-family="Segoe UI, Arial, sans-serif">NS_Judge.ejs</text>
  <rect x="542" y="166" width="178" height="34" rx="9" fill="#1F2937"/>
  <text x="572" y="188" fill="#E5E7EB" font-size="12" font-family="Segoe UI, Arial, sans-serif">NS_DB.sql</text>
  <rect x="328" y="256" width="420" height="116" rx="18" fill="#111827" stroke="#374151"/>
  <text x="356" y="292" fill="#F8FAFC" font-size="18" font-family="Segoe UI, Arial, sans-serif" font-weight="700">Query Activity</text>
  <g opacity="0.22" stroke="#94A3B8" stroke-width="1">
    <path d="M356 342H720"/>
    <path d="M356 316H720"/>
  </g>
  <path d="M376 334C416 322 438 284 484 292C530 300 546 340 588 326C624 314 654 272 700 282" stroke="#38BDF8" stroke-width="4" stroke-linecap="round"/>
  <path d="M376 344C416 348 438 330 484 326C530 322 548 294 588 300C628 306 666 322 700 314" stroke="#34D399" stroke-width="4" stroke-linecap="round" stroke-dasharray="10 9"/>
  <rect x="618" y="268" width="104" height="56" rx="12" fill="#0F172A" stroke="#334155"/>
  <text x="636" y="289" fill="#E2E8F0" font-size="12" font-family="Segoe UI, Arial, sans-serif">Records</text>
  <text x="637" y="311" fill="#A78BFA" font-size="22" font-family="Consolas, monospace" font-weight="700">50K+</text>
  <text x="355" y="396" fill="#94A3B8" font-size="12" font-family="Segoe UI, Arial, sans-serif">SQL · EJS · Node.js · Relational Design</text>
</svg>
