<svg xmlns="http://www.w3.org/2000/svg" viewBox="0 0 800 450" width="800" height="450">
  <defs>
    <linearGradient id="riskGlow" x1="0%" y1="0%" x2="100%" y2="100%">
      <stop offset="0%" stop-color="#7c3aed"/>
      <stop offset="55%" stop-color="#dc2626"/>
      <stop offset="100%" stop-color="#f59e0b"/>
    </linearGradient>
  </defs>
  <rect width="800" height="450" fill="#0d1117"/>
  <g stroke="rgba(255,255,255,0.08)" stroke-width="1">
    <path d="M0 75H800M0 150H800M0 225H800M0 300H800M0 375H800"/>
    <path d="M100 0V450M200 0V450M300 0V450M400 0V450M500 0V450M600 0V450M700 0V450"/>
  </g>
  <g fill="none" stroke="rgba(181,190,204,0.42)" stroke-width="2.4" stroke-linecap="round" stroke-linejoin="round">
    <path d="M88 140l26-22 54 8 34-18 32 6 12 18-18 18-28 8-9 27-48 8-28-12-27-1-18-20z"/>
    <path d="M254 98l25-20 36 2 23-14 42 10 37 12 18 31-18 30-32 5-8 17-28 9-32-17-22 5-29-19z"/>
    <path d="M288 206l41-12 54 10 34 20 2 24-20 14-17 23-30 18-42-9-20-34-18-20z"/>
    <path d="M462 115l28-12 46 11 33-13 65 20 31 23-10 23-39 6-20 26-40 7-43-14-28-27z"/>
    <path d="M528 243l34-8 60 12 37 19-18 23-27 15-45-5-34 10-20-18 6-25z"/>
    <path d="M622 111l31-18 43 2 17 18-11 20-35 5-33-9z"/>
    <path d="M634 296l32-13 41 10 11 24-28 18-43-6-18-20z"/>
  </g>
  <g fill="url(#riskGlow)" fill-opacity="0.72">
    <circle cx="163" cy="144" r="22"/>
    <circle cx="205" cy="181" r="12"/>
    <circle cx="340" cy="138" r="18"/>
    <circle cx="322" cy="256" r="20"/>
    <circle cx="479" cy="157" r="14"/>
    <circle cx="566" cy="140" r="24"/>
    <circle cx="615" cy="274" r="19"/>
    <circle cx="691" cy="126" r="17"/>
    <circle cx="543" cy="296" r="13"/>
    <circle cx="390" cy="240" r="11"/>
  </g>
  <g fill="#0f1722" stroke="rgba(255,255,255,0.14)" stroke-width="1.2">
    <rect x="52" y="310" width="250" height="102" rx="18"/>
    <rect x="558" y="44" width="188" height="104" rx="18"/>
  </g>
  <g font-family="Segoe UI, Arial, sans-serif" fill="#ffffff">
    <text x="72" y="340" font-size="11">DII</text>
    <text x="72" y="370" font-size="11">RRS</text>
    <text x="72" y="400" font-size="11">CRI</text>
    <text x="582" y="72" font-size="16" font-weight="700">Governance Impact</text>
    <text x="582" y="94" font-size="11" fill="rgba(255,255,255,0.72)">Recovery speed rises with stronger institutions</text>
  </g>
  <g fill="#7c3aed">
    <rect x="110" y="331" width="142" height="10" rx="5"/>
    <rect x="110" y="361" width="174" height="10" rx="5"/>
    <rect x="110" y="391" width="129" height="10" rx="5"/>
  </g>
  <g fill="#dc2626">
    <rect x="582" y="109" width="112" height="10" rx="5"/>
    <rect x="582" y="124" width="92" height="10" rx="5" opacity="0.55"/>
  </g>
</svg>
