<svg xmlns="http://www.w3.org/2000/svg" viewBox="0 0 1200 600" width="1200" height="600">
  <defs>
    <linearGradient id="dashGlow" x1="0%" y1="0%" x2="100%" y2="0%">
      <stop offset="0%" stop-color="#7c3aed" stop-opacity="0.26"/>
      <stop offset="100%" stop-color="#dc2626" stop-opacity="0.26"/>
    </linearGradient>
  </defs>
  <rect width="1200" height="600" fill="#0d1117"/>
  <g stroke="rgba(255,255,255,0.08)" stroke-width="1">
    <path d="M0 100H1200M0 200H1200M0 300H1200M0 400H1200M0 500H1200"/>
    <path d="M100 0V600M200 0V600M300 0V600M400 0V600M500 0V600M600 0V600M700 0V600M800 0V600"/>
  </g>
  <rect x="54" y="54" width="760" height="492" rx="28" fill="#0f1722" stroke="rgba(255,255,255,0.1)"/>
  <rect x="54" y="54" width="760" height="492" rx="28" fill="url(#dashGlow)"/>
  <g fill="none" stroke="rgba(181,190,204,0.42)" stroke-width="3" stroke-linecap="round" stroke-linejoin="round">
    <path d="M130 206l47-39 98 15 61-31 58 11 21 31-32 32-51 12-16 46-86 14-52-22-49-2-31-35z"/>
    <path d="M430 132l50-24 78 18 57-22 109 32 56 42-18 34-66 10-30 45-67 11-76-24-43-43z"/>
    <path d="M470 322l57-17 76 12 46 29 3 34-28 19-26 31-45 27-68-11-35-48-25-28z"/>
  </g>
  <g fill="url(#dashGlow)" fill-opacity="0.8">
    <circle cx="247" cy="210" r="30"/>
    <circle cx="374" cy="267" r="19"/>
    <circle cx="520" cy="171" r="24"/>
    <circle cx="631" cy="191" r="34"/>
    <circle cx="694" cy="365" r="28"/>
    <circle cx="551" cy="426" r="18"/>
  </g>
  <g fill="#111827" stroke="rgba(255,255,255,0.1)">
    <rect x="850" y="54" width="296" height="492" rx="28"/>
    <rect x="878" y="96" width="242" height="110" rx="18"/>
    <rect x="878" y="226" width="112" height="102" rx="18"/>
    <rect x="1008" y="226" width="112" height="102" rx="18"/>
    <rect x="878" y="348" width="242" height="148" rx="18"/>
  </g>
  <g font-family="Segoe UI, Arial, sans-serif" fill="#ffffff">
    <text x="88" y="95" font-size="24" font-weight="700">Global Disaster Resilience Dashboard</text>
    <text x="878" y="84" font-size="16" font-weight="700">Governance Score</text>
    <text x="916" y="164" font-size="34" font-weight="700">74.2</text>
    <text x="878" y="216" font-size="12" fill="rgba(255,255,255,0.7)">Tableau-style metrics and recovery indicators</text>
    <text x="902" y="250" font-size="11">DII</text><text x="1032" y="250" font-size="11">RRS</text>
    <text x="902" y="372" font-size="11">CRI</text><text x="1000" y="372" font-size="11">Regional Mix</text>
  </g>
  <g fill="#7c3aed">
    <rect x="900" y="266" width="68" height="10" rx="5"/><rect x="900" y="286" width="54" height="10" rx="5"/><rect x="900" y="306" width="80" height="10" rx="5"/>
  </g>
  <g fill="#dc2626">
    <rect x="1030" y="266" width="52" height="10" rx="5"/><rect x="1030" y="286" width="71" height="10" rx="5"/><rect x="1030" y="306" width="42" height="10" rx="5"/>
  </g>
  <g fill="#7c3aed">
    <rect x="902" y="386" width="106" height="14" rx="7"/><rect x="902" y="413" width="132" height="14" rx="7"/><rect x="902" y="440" width="87" height="14" rx="7"/>
  </g>
  <g transform="translate(1070 428)">
    <circle r="34" fill="#1f2937"/>
    <path d="M0 0L34 0A34 34 0 0 1 9 32Z" fill="#dc2626"/>
    <path d="M0 0L9 32A34 34 0 0 1 -27 19Z" fill="#7c3aed"/>
    <path d="M0 0L-27 19A34 34 0 0 1 -16 -30Z" fill="#f59e0b"/>
  </g>
</svg>
