<svg xmlns="http://www.w3.org/2000/svg" viewBox="0 0 1200 600" width="1200" height="600">
  <rect width="1200" height="600" fill="#0a0f1e"/>
  <g fill="#10182a" stroke="rgba(255,255,255,0.08)">
    <rect x="50" y="54" width="760" height="492" rx="28"/>
    <rect x="846" y="54" width="304" height="492" rx="28"/>
  </g>
  <g stroke="rgba(255,255,255,0.14)" stroke-width="1">
    <path d="M110 120H770M110 210H770M110 300H770M110 390H770"/>
  </g>
  <g stroke="#ffffff" stroke-width="2">
    <path d="M110 474H770"/>
    <path d="M110 104V474"/>
  </g>
  <g fill="rgba(52,211,153,0.16)">
    <path d="M555 182 C610 166 660 184 738 228 L738 270 C660 228 610 212 555 226Z"/>
  </g>
  <g fill="rgba(244,114,182,0.16)">
    <path d="M555 182 C610 200 660 236 738 268 L738 306 C660 272 610 234 555 210Z"/>
  </g>
  <path d="M132 360 C185 255 242 290 298 230 S404 205 461 154 S516 200 555 182" fill="none" stroke="#60a5fa" stroke-width="5"/>
  <path d="M555 182 C610 166 660 184 738 228" fill="none" stroke="#34d399" stroke-width="5" stroke-dasharray="12 10"/>
  <path d="M555 182 C610 200 660 236 738 268" fill="none" stroke="#f472b6" stroke-width="5" stroke-dasharray="12 10"/>
  <g font-family="Segoe UI, Arial, sans-serif" fill="#ffffff">
    <text x="120" y="86" font-size="24" font-weight="700">Inflation Forecast Comparison</text>
    <text x="874" y="92" font-size="16" font-weight="700">Variable Correlation Matrix</text>
  </g>
  <g font-family="Segoe UI, Arial, sans-serif" font-size="10" fill="rgba(255,255,255,0.62)">
    <text x="132" y="498">2018</text><text x="240" y="498">2019</text><text x="348" y="498">2020</text><text x="456" y="498">2021</text><text x="564" y="498">2022</text><text x="672" y="498">2023</text>
  </g>
  <g transform="translate(880 130)">
    <rect width="220" height="220" rx="16" fill="#0f172a"/>
    <g>
      <rect x="16" y="16" width="28" height="28" fill="#1e3a8a"/><rect x="50" y="16" width="28" height="28" fill="#2563eb"/><rect x="84" y="16" width="28" height="28" fill="#1d4ed8"/><rect x="118" y="16" width="28" height="28" fill="#dc2626"/><rect x="152" y="16" width="28" height="28" fill="#3b82f6"/><rect x="186" y="16" width="18" height="28" fill="#1e40af"/>
      <rect x="16" y="50" width="28" height="28" fill="#2563eb"/><rect x="50" y="50" width="28" height="28" fill="#1e3a8a"/><rect x="84" y="50" width="28" height="28" fill="#3b82f6"/><rect x="118" y="50" width="28" height="28" fill="#1d4ed8"/><rect x="152" y="50" width="28" height="28" fill="#dc2626"/><rect x="186" y="50" width="18" height="28" fill="#2563eb"/>
      <rect x="16" y="84" width="28" height="28" fill="#1d4ed8"/><rect x="50" y="84" width="28" height="28" fill="#3b82f6"/><rect x="84" y="84" width="28" height="28" fill="#1e3a8a"/><rect x="118" y="84" width="28" height="28" fill="#2563eb"/><rect x="152" y="84" width="28" height="28" fill="#3b82f6"/><rect x="186" y="84" width="18" height="28" fill="#dc2626"/>
      <rect x="16" y="118" width="28" height="28" fill="#dc2626"/><rect x="50" y="118" width="28" height="28" fill="#1d4ed8"/><rect x="84" y="118" width="28" height="28" fill="#2563eb"/><rect x="118" y="118" width="28" height="28" fill="#1e3a8a"/><rect x="152" y="118" width="28" height="28" fill="#2563eb"/><rect x="186" y="118" width="18" height="28" fill="#1d4ed8"/>
      <rect x="16" y="152" width="28" height="28" fill="#3b82f6"/><rect x="50" y="152" width="28" height="28" fill="#dc2626"/><rect x="84" y="152" width="28" height="28" fill="#3b82f6"/><rect x="118" y="152" width="28" height="28" fill="#2563eb"/><rect x="152" y="152" width="28" height="28" fill="#1e3a8a"/><rect x="186" y="152" width="18" height="28" fill="#2563eb"/>
      <rect x="16" y="186" width="28" height="18" fill="#1e40af"/><rect x="50" y="186" width="28" height="18" fill="#2563eb"/><rect x="84" y="186" width="28" height="18" fill="#dc2626"/><rect x="118" y="186" width="28" height="18" fill="#1d4ed8"/><rect x="152" y="186" width="28" height="18" fill="#2563eb"/><rect x="186" y="186" width="18" height="18" fill="#1e3a8a"/>
    </g>
  </g>
  <g font-family="Segoe UI, Arial, sans-serif" font-size="11" fill="#ffffff">
    <circle cx="654" cy="104" r="4" fill="#60a5fa"/><text x="666" y="108">Actual</text>
    <circle cx="654" cy="128" r="4" fill="#34d399"/><text x="666" y="132">ARIMA</text>
    <circle cx="654" cy="152" r="4" fill="#f472b6"/><text x="666" y="156">Random Forest</text>
  </g>
</svg>
