<svg xmlns="http://www.w3.org/2000/svg" viewBox="0 0 800 450" width="800" height="450">
  <rect width="800" height="450" fill="#111827"/>
  <rect x="72" y="52" width="656" height="346" rx="24" fill="#0f1720" stroke="rgba(255,255,255,0.12)"/>
  <rect x="72" y="52" width="656" height="50" rx="24" fill="#1f2937"/>
  <text x="98" y="83" fill="#ffffff" font-family="Segoe UI, Arial, sans-serif" font-size="18" font-weight="700">Taskify</text>
  <circle cx="673" cy="77" r="6" fill="#ef4444"/><circle cx="694" cy="77" r="6" fill="#f59e0b"/><circle cx="715" cy="77" r="6" fill="#10b981"/>
  <rect x="94" y="120" width="180" height="250" rx="18" fill="#1f2937"/>
  <g font-family="Segoe UI, Arial, sans-serif" font-size="13" fill="#ffffff">
    <rect x="110" y="140" width="146" height="28" rx="14" fill="#374151"/><circle cx="126" cy="154" r="5" fill="#9ca3af"/><text x="140" y="158">Research</text>
    <rect x="110" y="178" width="146" height="28" rx="14" fill="#1e3a8a"/><circle cx="126" cy="192" r="5" fill="#60a5fa"/><text x="140" y="196">Forecasting</text>
    <rect x="110" y="216" width="146" height="28" rx="14" fill="#14532d"/><circle cx="126" cy="230" r="5" fill="#34d399"/><text x="140" y="234">Dashboards</text>
    <rect x="110" y="254" width="146" height="28" rx="14" fill="#3b0764"/><circle cx="126" cy="268" r="5" fill="#c084fc"/><text x="140" y="272">Thesis Ideas</text>
    <rect x="110" y="292" width="146" height="28" rx="14" fill="#78350f"/><circle cx="126" cy="306" r="5" fill="#fbbf24"/><text x="140" y="310">Personal</text>
  </g>
  <g>
    <rect x="310" y="124" width="380" height="68" rx="18" fill="#151f2d" stroke="rgba(255,255,255,0.08)"/>
    <rect x="310" y="204" width="380" height="68" rx="18" fill="#151f2d" stroke="rgba(255,255,255,0.08)"/>
    <rect x="310" y="284" width="380" height="68" rx="18" fill="#151f2d" stroke="rgba(255,255,255,0.08)"/>
    <rect x="310" y="124" width="5" height="68" rx="3" fill="#3b82f6"/>
    <text x="334" y="151" fill="#ffffff" font-family="Segoe UI, Arial, sans-serif" font-size="16" font-weight="700">Finalize project milestone plan</text>
    <text x="334" y="173" fill="#6b7280" font-family="Segoe UI, Arial, sans-serif" font-size="12">Sync dependencies, outline deliverables, update dashboard notes</text>
    <rect x="616" y="138" width="52" height="20" rx="10" fill="#dc2626"/><text x="630" y="152" fill="#ffffff" font-family="Segoe UI, Arial, sans-serif" font-size="11">High</text>
    <text x="334" y="231" fill="#ffffff" font-family="Segoe UI, Arial, sans-serif" font-size="16" font-weight="700">Review survey cleaning workflow</text>
    <text x="334" y="253" fill="#6b7280" font-family="Segoe UI, Arial, sans-serif" font-size="12">Validate extracted columns and scheduling dependencies</text>
    <rect x="608" y="218" width="60" height="20" rx="10" fill="#f59e0b"/><text x="622" y="232" fill="#ffffff" font-family="Segoe UI, Arial, sans-serif" font-size="11">Medium</text>
    <text x="334" y="311" fill="#ffffff" font-family="Segoe UI, Arial, sans-serif" font-size="16" font-weight="700">Prepare weekly progress summary</text>
    <text x="334" y="333" fill="#6b7280" font-family="Segoe UI, Arial, sans-serif" font-size="12">Capture blockers, wins, and next actions for the team</text>
    <rect x="620" y="298" width="48" height="20" rx="10" fill="#10b981"/><text x="632" y="312" fill="#ffffff" font-family="Segoe UI, Arial, sans-serif" font-size="11">Low</text>
  </g>
  <rect x="548" y="362" width="128" height="30" rx="15" fill="#3b82f6"/>
  <text x="585" y="382" fill="#ffffff" font-family="Segoe UI, Arial, sans-serif" font-size="13" font-weight="700">Add Task</text>
</svg>
