<svg xmlns="http://www.w3.org/2000/svg" viewBox="0 0 800 450" width="800" height="450">
  <rect width="800" height="450" fill="#0d1117"/>
  <g fill="#1f2937">
    <rect x="120" y="70" width="560" height="54" rx="12"/>
    <rect x="120" y="160" width="560" height="54" rx="12"/>
    <rect x="120" y="250" width="560" height="54" rx="12"/>
    <rect x="120" y="340" width="560" height="54" rx="12"/>
    <rect x="163" y="34" width="54" height="382" rx="12"/>
    <rect x="293" y="34" width="54" height="382" rx="12"/>
    <rect x="423" y="34" width="54" height="382" rx="12"/>
    <rect x="553" y="34" width="54" height="382" rx="12"/>
  </g>
  <g stroke="rgba(255,255,255,0.32)" stroke-dasharray="8 10" stroke-width="2">
    <path d="M120 97H680M120 187H680M120 277H680M120 367H680"/>
    <path d="M190 34V416M320 34V416M450 34V416M580 34V416"/>
  </g>
  <g fill="#ef4444"><rect x="135" y="84" width="22" height="12" rx="3"/><rect x="386" y="354" width="22" height="12" rx="3"/><rect x="594" y="175" width="22" height="12" rx="3"/></g>
  <g fill="#3b82f6"><rect x="338" y="264" width="22" height="12" rx="3"/><rect x="245" y="173" width="22" height="12" rx="3"/><rect x="518" y="84" width="22" height="12" rx="3"/></g>
  <g fill="#10b981"><rect x="178" y="298" width="12" height="22" rx="3"/><rect x="568" y="208" width="12" height="22" rx="3"/></g>
  <g>
    <g transform="translate(175 174)"><rect x="-10" y="-26" width="20" height="52" rx="8" fill="#111827"/><circle cy="-12" r="4" fill="#ef4444"/><circle cy="0" r="4" fill="rgba(245,158,11,0.25)"/><circle cy="12" r="4" fill="rgba(16,185,129,0.25)"/></g>
    <g transform="translate(305 264)"><rect x="-10" y="-26" width="20" height="52" rx="8" fill="#111827"/><circle cy="-12" r="4" fill="rgba(239,68,68,0.25)"/><circle cy="0" r="4" fill="#f59e0b"/><circle cy="12" r="4" fill="rgba(16,185,129,0.25)"/></g>
    <g transform="translate(435 174)"><rect x="-10" y="-26" width="20" height="52" rx="8" fill="#111827"/><circle cy="-12" r="4" fill="rgba(239,68,68,0.25)"/><circle cy="0" r="4" fill="rgba(245,158,11,0.25)"/><circle cy="12" r="4" fill="#10b981"/></g>
    <g transform="translate(565 264)"><rect x="-10" y="-26" width="20" height="52" rx="8" fill="#111827"/><circle cy="-12" r="4" fill="#ef4444"/><circle cy="0" r="4" fill="rgba(245,158,11,0.25)"/><circle cy="12" r="4" fill="rgba(16,185,129,0.25)"/></g>
  </g>
  <rect x="530" y="332" width="206" height="70" rx="14" fill="#111827" stroke="rgba(255,255,255,0.12)"/>
  <text x="548" y="360" fill="#4ade80" font-family="Consolas, 'Courier New', monospace" font-size="11">FPS: 60 | Vehicles: 8</text>
  <text x="548" y="382" fill="#4ade80" font-family="Consolas, 'Courier New', monospace" font-size="11">Queued: 3 | Avg Wait: 2.4s</text>
</svg>
